<svg xmlns="http://www.w3.org/2000/svg" width="34" height="34" viewBox="0 0 34 34"><g><g><path fill="#20b086" d="M22.13 21.2a10.458 10.458 0 0 1-15.537 0c-3.566-3.942-3.566-10.053 0-13.994a10.458 10.458 0 0 1 15.537 0c3.566 3.941 3.566 10.052 0 13.994zm3.525 1.626c4.338-5.651 3.837-13.806-1.46-18.895C18.71-1.324 9.93-1.282 4.486 3.994c-5.714 5.527-5.756 14.64-.166 20.25 5.088 5.09 13.097 5.506 18.665 1.231l7.487 7.487c.73.73 1.919.73 2.649 0s.73-1.919 0-2.649z"/></g><g><path fill="#20b086" d="M18.767 17.258l-.038-.167h-2.327V6.893h-1.03L9.784 9.5l.02.167c.037.229.095.48.17.75.077.25.173.522.268.751.095.25.21.48.324.73.115.23.229.438.343.626l.077.125 1.888-.793v5.235h-2.365l-.038.167a7.528 7.528 0 0 0-.172 1.543c0 .522.057 1.043.172 1.585l.038.167h8.22l.038-.167a7.626 7.626 0 0 0 .172-1.585c0-.5-.058-1.022-.172-1.543z"/></g></g></svg>