<?xml version="1.0" encoding="utf-8"?>
<!-- Generator: Adobe Illustrator 24.1.2, SVG Export Plug-In . SVG Version: 6.00 Build 0)  -->
<svg version="1.1" id="Camada_1" xmlns="http://www.w3.org/2000/svg" xmlns:xlink="http://www.w3.org/1999/xlink" x="0px" y="0px"
	 viewBox="0 0 840.3 400.7" style="enable-background:new 0 0 840.3 400.7;" xml:space="preserve">
<style type="text/css">
	.st0{fill:#20B086;}
	.st1{fill:#4717B0;}
	.st2{fill:none;}
</style>
<g>
	<path class="st0" d="M327.4,241.9c20.8-27.1,18.4-66.2-7-90.6c-26.3-25.2-68.4-25-94.5,0.3c-27.4,26.5-27.6,70.2-0.8,97.1
		c24.4,24.4,62.8,26.4,89.5,5.9l35.9,35.9c3.5,3.5,9.2,3.5,12.7,0l0,0c3.5-3.5,3.5-9.2,0-12.7L327.4,241.9z M310.5,234.1
		c-20,22.1-54.5,22.1-74.5,0c-17.1-18.9-17.1-48.2,0-67.1c20-22.1,54.5-22.1,74.5,0C327.6,185.9,327.6,215.2,310.5,234.1z"/>
	<path class="st0" d="M294.4,215.2l-0.2-0.8H283v-48.9h-4.9L251.3,178l0.1,0.8c0.2,1.1,0.5,2.3,0.8,3.6c0.4,1.2,0.8,2.5,1.3,3.6
		c0.5,1.2,1,2.3,1.6,3.5c0.5,1.1,1.1,2.1,1.6,3l0.4,0.6l9.1-3.8v25.1h-11.3l-0.2,0.8c-0.5,2.6-0.8,5.1-0.8,7.4c0,2.5,0.3,5,0.8,7.6
		l0.2,0.8h39.4l0.2-0.8c0.5-2.6,0.8-5.1,0.8-7.6C295.2,220.2,294.9,217.7,294.4,215.2z"/>
	<g>
		<path class="st1" d="M164,165.1c15.9,0,26.6,8.3,30.1,22.6h-17.4c-1.8-5.4-6.1-8.9-12.8-8.9c-9,0-15,6.8-15,19.2
			c0,12.4,6,19.1,15,19.1c6.7,0,10.8-3,12.8-8.8h17.4C190.6,222,179.9,231,164,231c-18.4,0-31.6-12.9-31.6-32.9
			C132.5,178,145.6,165.1,164,165.1z"/>
		<path class="st1" d="M398.5,194.7c0-10.2-5.6-15.8-14.2-15.8c-8.8,0-14.4,5.5-14.4,15.8v35.2h-16.1v-63.8H370v7.9
			c4.1-5.4,11.1-8.9,19.2-8.9c14.9,0,25.4,9.7,25.4,27.3v37.4h-16.1V194.7z"/>
		<path class="st1" d="M454.4,231c-16,0-27.2-9.3-27.9-21.2h16.2c0.6,4.8,5.1,8.5,11.5,8.5c6.3,0,9.8-2.9,9.8-6.6
			c0-11.4-36-4.1-36-27.5c0-10.6,9.4-19.1,25.2-19.1c15.4,0,24.8,8.4,25.7,21.1h-15.4c-0.5-5-4.4-8.3-10.7-8.3c-6,0-9.1,2.4-9.1,6.1
			c0,11.6,35.4,4.4,35.8,27.8C479.5,222.7,469.9,231,454.4,231z"/>
		<path class="st1" d="M553,229.9h-16.2v-8.1c-4,5.4-11.1,8.9-19,8.9c-14.9,0-25.6-9.7-25.6-27.2v-37.4h16.1v35.1
			c0,10.2,5.6,15.8,14.2,15.8c8.8,0,14.3-5.5,14.3-15.8v-35.1H553V229.9z"/>
		<path class="st1" d="M568.9,144.7H585v85.2h-16.1V144.7z"/>
		<path class="st1" d="M603.4,179.4h-7.6v-13.2h7.6v-15.8h16.2v15.8h14.3v13.2h-14.3v30.9c0,4.3,1.7,6.1,6.8,6.1h7.5v13.6h-10.1
			c-12.2,0-20.4-5.2-20.4-19.8V179.4z"/>
		<path class="st1" d="M670.6,165.1c10.2,0,17.3,4.8,21.1,10.1v-9.1h16.2v63.8h-16.2v-9.3c-3.8,5.5-11.1,10.4-21.2,10.4
			c-16.1,0-29-13.2-29-33.2S654.3,165.1,670.6,165.1z M674.7,179.3c-8.6,0-16.8,6.4-16.8,18.5s8.2,19,16.8,19
			c8.9,0,16.9-6.7,16.9-18.8C691.6,185.9,683.6,179.3,674.7,179.3z"/>
	</g>
	<rect class="st2" width="840.3" height="400.7"/>
</g>
</svg>
