<svg xmlns="http://www.w3.org/2000/svg" width="120" height="34" viewBox="0 0 120 34"><g><g><path fill="#20b086" d="M37.13 21.2a10.458 10.458 0 0 1-15.537 0c-3.566-3.942-3.566-10.053 0-13.994a10.458 10.458 0 0 1 15.537 0c3.566 3.941 3.566 10.052 0 13.994zm3.525 1.626c4.338-5.651 3.837-13.806-1.46-18.895-5.485-5.255-14.265-5.213-19.709.063-5.714 5.527-5.756 14.64-.166 20.25 5.088 5.09 13.097 5.506 18.665 1.231l7.487 7.487c.73.73 1.919.73 2.649 0s.73-1.919 0-2.649z"/></g><g><path fill="#20b086" d="M33.767 17.258l-.038-.167h-2.327V6.893h-1.03L24.784 9.5l.02.167c.037.229.095.48.17.75.077.25.173.522.268.751.095.25.21.48.324.73.115.23.229.438.343.626l.077.125 1.888-.793v5.235h-2.365l-.038.167a7.528 7.528 0 0 0-.172 1.543c0 .522.057 1.043.172 1.585l.038.167h8.22l.038-.167a7.626 7.626 0 0 0 .172-1.585c0-.5-.058-1.022-.172-1.543z"/></g><g><g><path fill="#fff" d="M6.58 6.816c3.315 0 5.548 1.729 6.269 4.707H9.222c-.384-1.129-1.273-1.85-2.665-1.85-1.874 0-3.123 1.418-3.123 4.012 0 2.593 1.25 3.986 3.123 3.986 1.392 0 2.257-.624 2.665-1.825h3.627c-.72 2.834-2.954 4.707-6.269 4.707-3.842 0-6.58-2.69-6.58-6.868 0-4.18 2.738-6.87 6.58-6.87z"/></g><g><path fill="#fff" d="M55.491 12.988c0-2.137-1.176-3.29-2.953-3.29-1.826 0-3.003 1.153-3.003 3.29v7.349h-3.362V7.032h3.362V8.69c.865-1.129 2.306-1.85 4.011-1.85 3.098 0 5.308 2.018 5.308 5.693v7.805H55.49z"/></g><g><path fill="#fff" d="M67.14 20.553c-3.339 0-5.668-1.945-5.812-4.419h3.386c.12 1.009 1.057 1.777 2.402 1.777 1.32 0 2.041-.6 2.041-1.369 0-2.377-7.517-.864-7.517-5.74 0-2.209 1.97-3.986 5.26-3.986 3.218 0 5.163 1.753 5.355 4.395h-3.218c-.096-1.033-.913-1.73-2.233-1.73-1.25 0-1.898.505-1.898 1.273 0 2.426 7.373.913 7.47 5.788 0 2.282-1.994 4.011-5.236 4.011z"/></g><g><path fill="#fff" d="M87.698 20.337h-3.386v-1.681c-.841 1.129-2.306 1.85-3.963 1.85-3.098 0-5.332-2.018-5.332-5.669V7.032h3.363v7.325c0 2.137 1.176 3.29 2.954 3.29 1.825 0 2.978-1.153 2.978-3.29V7.032h3.386z"/></g><g><path fill="#fff" d="M91.013 2.565h3.362v17.772h-3.362z"/></g><g><path fill="#fff" d="M98.218 9.794h-1.586V7.032h1.586v-3.29h3.386v3.29h2.978v2.762h-2.978v6.436c0 .889.36 1.273 1.417 1.273h1.56v2.834h-2.112c-2.546 0-4.251-1.08-4.251-4.13z"/></g><g><path fill="#fff" d="M116.614 13.685c0 2.521-1.681 3.914-3.53 3.914-1.802 0-3.507-1.44-3.507-3.963 0-2.521 1.705-3.866 3.506-3.866 1.85 0 3.53 1.393 3.53 3.915zm-4.395-6.87c-3.386 0-6.076 2.667-6.076 6.821 0 4.155 2.69 6.917 6.052 6.917 2.113 0 3.626-1.009 4.419-2.161v1.945H120V7.032h-3.386V8.93c-.793-1.105-2.257-2.113-4.395-2.113z"/></g></g></g></svg>